# Blender v2.81 (sub 16) OBJ File: 'buoy.blend'
# www.blender.org
mtllib buoy.mtl
o Cube
v 1.000000 -1.000000 -1.000000
v 1.000000 -1.000000 1.000000
v -1.000000 -1.000000 -1.000000
v -1.000000 -1.000000 1.000000
v 1.000000 3.000000 -1.000000
v 1.000000 3.000000 1.000000
v -1.000000 3.000000 -1.000000
v -1.000000 3.000000 1.000000
v -1.000000 2.000000 0.000000
v 0.000000 2.000000 -1.000000
v 0.000000 2.000000 1.000000
v 1.000000 2.000000 0.000000
vt 0.757812 0.748750
vt 0.757812 -0.001250
vt 0.507812 0.748750
vt 0.257812 -0.001250
vt 0.257812 0.748750
vt 0.757812 0.843750
vt 0.257812 0.843750
vt 0.257812 0.343750
vt 0.757812 0.343750
vt 0.257812 0.593750
vt 0.507812 0.843750
vt 0.757812 0.593750
vt 0.507812 0.343750
vt 0.257812 -0.001250
vt 0.507812 0.748750
vt 0.757812 -0.001250
vt 0.257812 0.998750
vt 0.757812 0.998750
vt 0.757812 0.998750
vt 0.757812 -0.001250
vt 0.507812 0.748750
vt 0.257812 0.998750
vt 0.757812 0.998750
vt 0.507812 0.748750
vt 0.257812 0.998750
vt 0.257812 -0.001250
vn -0.6882 -0.2294 -0.6882
vn 0.6882 -0.2294 -0.6882
vn 0.0000 1.0000 0.0000
vn 0.0000 -1.0000 0.0000
vn 0.6882 -0.2294 0.6882
vn -0.6882 -0.2294 0.6882
vn 0.0000 0.0000 -1.0000
vn -1.0000 0.0000 0.0000
vn 0.0000 0.0000 1.0000
vn 1.0000 0.0000 0.0000
usemtl Material
s off
f 12/1/1 2/2/1 11/3/1
f 4/4/2 9/5/2 11/3/2
f 5/6/3 7/7/3 8/8/3 6/9/3
f 9/10/4 10/11/4 12/12/4 11/13/4
f 9/5/5 3/14/5 10/15/5
f 10/15/6 1/16/6 12/1/6
f 10/15/7 3/14/7 7/17/7 5/18/7 1/16/7
f 7/19/8 3/20/8 9/21/8 4/4/8 8/22/8
f 11/3/9 2/2/9 6/23/9 8/22/9 4/4/9
f 12/24/10 1/16/10 5/18/10 6/25/10 2/26/10
o Cylinder
v 0.000000 -4.500000 -2.000000
v 0.000000 -0.500000 -2.000000
v 0.390181 -4.500000 -1.961571
v 0.390181 -0.500000 -1.961571
v 0.765367 -4.500000 -1.847759
v 0.765367 -0.500000 -1.847759
v 1.111140 -4.500000 -1.662939
v 1.111140 -0.500000 -1.662939
v 1.414214 -4.500000 -1.414214
v 1.414214 -0.500000 -1.414214
v 1.662939 -4.500000 -1.111140
v 1.662939 -0.500000 -1.111140
v 1.847759 -4.500000 -0.765367
v 1.847759 -0.500000 -0.765367
v 1.961571 -4.500000 -0.390181
v 1.961571 -0.500000 -0.390181
v 2.000000 -4.500000 -0.000000
v 2.000000 -0.500000 -0.000000
v 1.961571 -4.500000 0.390180
v 1.961571 -0.500000 0.390180
v 1.847759 -4.500000 0.765367
v 1.847759 -0.500000 0.765367
v 1.662939 -4.500000 1.111140
v 1.662939 -0.500000 1.111140
v 1.414214 -4.500000 1.414214
v 1.414214 -0.500000 1.414214
v 1.111140 -4.500000 1.662939
v 1.111140 -0.500000 1.662939
v 0.765367 -4.500000 1.847759
v 0.765367 -0.500000 1.847759
v 0.390180 -4.500000 1.961571
v 0.390180 -0.500000 1.961571
v -0.000001 -4.500000 2.000000
v -0.000001 -0.500000 2.000000
v -0.390181 -4.500000 1.961570
v -0.390181 -0.500000 1.961570
v -0.765368 -4.500000 1.847759
v -0.765368 -0.500000 1.847759
v -1.111141 -4.500000 1.662939
v -1.111141 -0.500000 1.662939
v -1.414214 -4.500000 1.414213
v -1.414214 -0.500000 1.414213
v -1.662940 -4.500000 1.111139
v -1.662940 -0.500000 1.111139
v -1.847760 -4.500000 0.765365
v -1.847760 -0.500000 0.765365
v -1.961571 -4.500000 0.390179
v -1.961571 -0.500000 0.390179
v -2.000000 -4.500000 -0.000002
v -2.000000 -0.500000 -0.000002
v -1.961570 -4.500000 -0.390183
v -1.961570 -0.500000 -0.390183
v -1.847758 -4.500000 -0.765369
v -1.847758 -0.500000 -0.765369
v -1.662938 -4.500000 -1.111143
v -1.662938 -0.500000 -1.111143
v -1.414212 -4.500000 -1.414215
v -1.414212 -0.500000 -1.414215
v -1.111138 -4.500000 -1.662941
v -1.111138 -0.500000 -1.662941
v -0.765364 -4.500000 -1.847760
v -0.765364 -0.500000 -1.847760
v -0.390178 -4.500000 -1.961571
v -0.390178 -0.500000 -1.961571
vt 1.000000 0.500000
vt 1.000000 1.000000
vt 0.968750 1.000000
vt 0.968750 0.500000
vt 0.937500 1.000000
vt 0.937500 0.500000
vt 0.906250 1.000000
vt 0.906250 0.500000
vt 0.875000 1.000000
vt 0.875000 0.500000
vt 0.843750 1.000000
vt 0.843750 0.500000
vt 0.812500 1.000000
vt 0.812500 0.500000
vt 0.781250 1.000000
vt 0.781250 0.500000
vt 0.750000 1.000000
vt 0.750000 0.500000
vt 0.718750 1.000000
vt 0.718750 0.500000
vt 0.687500 1.000000
vt 0.687500 0.500000
vt 0.656250 1.000000
vt 0.656250 0.500000
vt 0.625000 1.000000
vt 0.625000 0.500000
vt 0.593750 1.000000
vt 0.593750 0.500000
vt 0.562500 1.000000
vt 0.562500 0.500000
vt 0.531250 1.000000
vt 0.531250 0.500000
vt 0.500000 1.000000
vt 0.500000 0.500000
vt 0.468750 1.000000
vt 0.468750 0.500000
vt 0.437500 1.000000
vt 0.437500 0.500000
vt 0.406250 1.000000
vt 0.406250 0.500000
vt 0.375000 1.000000
vt 0.375000 0.500000
vt 0.343750 1.000000
vt 0.343750 0.500000
vt 0.312500 1.000000
vt 0.312500 0.500000
vt 0.281250 1.000000
vt 0.281250 0.500000
vt 0.250000 1.000000
vt 0.250000 0.500000
vt 0.218750 1.000000
vt 0.218750 0.500000
vt 0.187500 1.000000
vt 0.187500 0.500000
vt 0.156250 1.000000
vt 0.156250 0.500000
vt 0.125000 1.000000
vt 0.125000 0.500000
vt 0.093750 1.000000
vt 0.093750 0.500000
vt 0.062500 1.000000
vt 0.062500 0.500000
vt 0.296822 0.485388
vt 0.250000 0.490000
vt 0.203179 0.485389
vt 0.158156 0.471731
vt 0.116663 0.449553
vt 0.080295 0.419706
vt 0.050447 0.383337
vt 0.028269 0.341844
vt 0.014612 0.296822
vt 0.010000 0.250000
vt 0.014611 0.203179
vt 0.028269 0.158156
vt 0.050447 0.116663
vt 0.080294 0.080294
vt 0.116663 0.050447
vt 0.158156 0.028269
vt 0.203178 0.014612
vt 0.250000 0.010000
vt 0.296822 0.014612
vt 0.341844 0.028269
vt 0.383337 0.050447
vt 0.419706 0.080294
vt 0.449553 0.116663
vt 0.471731 0.158156
vt 0.485388 0.203178
vt 0.490000 0.250000
vt 0.485388 0.296822
vt 0.471731 0.341844
vt 0.449553 0.383337
vt 0.419706 0.419706
vt 0.383337 0.449553
vt 0.341844 0.471731
vt 0.031250 1.000000
vt 0.031250 0.500000
vt 0.000000 1.000000
vt 0.000000 0.500000
vt 0.750000 0.490000
vt 0.796822 0.485388
vt 0.841844 0.471731
vt 0.883337 0.449553
vt 0.919706 0.419706
vt 0.949553 0.383337
vt 0.971731 0.341844
vt 0.985388 0.296822
vt 0.990000 0.250000
vt 0.985388 0.203178
vt 0.971731 0.158156
vt 0.949553 0.116663
vt 0.919706 0.080294
vt 0.883337 0.050447
vt 0.841844 0.028269
vt 0.796822 0.014612
vt 0.750000 0.010000
vt 0.703178 0.014612
vt 0.658156 0.028269
vt 0.616663 0.050447
vt 0.580294 0.080294
vt 0.550447 0.116663
vt 0.528269 0.158156
vt 0.514611 0.203179
vt 0.510000 0.250000
vt 0.514612 0.296822
vt 0.528269 0.341844
vt 0.550447 0.383337
vt 0.580295 0.419706
vt 0.616663 0.449553
vt 0.658156 0.471731
vt 0.703179 0.485389
vn 0.0980 0.0000 -0.9952
vn 0.2903 0.0000 -0.9569
vn 0.4714 0.0000 -0.8819
vn 0.6344 0.0000 -0.7730
vn 0.7730 0.0000 -0.6344
vn 0.8819 0.0000 -0.4714
vn 0.9569 0.0000 -0.2903
vn 0.9952 0.0000 -0.0980
vn 0.9952 0.0000 0.0980
vn 0.9569 0.0000 0.2903
vn 0.8819 0.0000 0.4714
vn 0.7730 0.0000 0.6344
vn 0.6344 0.0000 0.7730
vn 0.4714 0.0000 0.8819
vn 0.2903 0.0000 0.9569
vn 0.0980 0.0000 0.9952
vn -0.0980 0.0000 0.9952
vn -0.2903 0.0000 0.9569
vn -0.4714 0.0000 0.8819
vn -0.6344 0.0000 0.7730
vn -0.7730 0.0000 0.6344
vn -0.8819 0.0000 0.4714
vn -0.9569 0.0000 0.2903
vn -0.9952 0.0000 0.0980
vn -0.9952 0.0000 -0.0980
vn -0.9569 0.0000 -0.2903
vn -0.8819 0.0000 -0.4714
vn -0.7730 0.0000 -0.6344
vn -0.6344 0.0000 -0.7730
vn -0.4714 0.0000 -0.8819
vn 0.0000 1.0000 -0.0000
vn -0.2903 0.0000 -0.9569
vn -0.0980 0.0000 -0.9952
vn 0.0000 -1.0000 -0.0000
usemtl None
s off
f 13/27/11 14/28/11 16/29/11 15/30/11
f 15/30/12 16/29/12 18/31/12 17/32/12
f 17/32/13 18/31/13 20/33/13 19/34/13
f 19/34/14 20/33/14 22/35/14 21/36/14
f 21/36/15 22/35/15 24/37/15 23/38/15
f 23/38/16 24/37/16 26/39/16 25/40/16
f 25/40/17 26/39/17 28/41/17 27/42/17
f 27/42/18 28/41/18 30/43/18 29/44/18
f 29/44/19 30/43/19 32/45/19 31/46/19
f 31/46/20 32/45/20 34/47/20 33/48/20
f 33/48/21 34/47/21 36/49/21 35/50/21
f 35/50/22 36/49/22 38/51/22 37/52/22
f 37/52/23 38/51/23 40/53/23 39/54/23
f 39/54/24 40/53/24 42/55/24 41/56/24
f 41/56/25 42/55/25 44/57/25 43/58/25
f 43/58/26 44/57/26 46/59/26 45/60/26
f 45/60/27 46/59/27 48/61/27 47/62/27
f 47/62/28 48/61/28 50/63/28 49/64/28
f 49/64/29 50/63/29 52/65/29 51/66/29
f 51/66/30 52/65/30 54/67/30 53/68/30
f 53/68/31 54/67/31 56/69/31 55/70/31
f 55/70/32 56/69/32 58/71/32 57/72/32
f 57/72/33 58/71/33 60/73/33 59/74/33
f 59/74/34 60/73/34 62/75/34 61/76/34
f 61/76/35 62/75/35 64/77/35 63/78/35
f 63/78/36 64/77/36 66/79/36 65/80/36
f 65/80/37 66/79/37 68/81/37 67/82/37
f 67/82/38 68/81/38 70/83/38 69/84/38
f 69/84/39 70/83/39 72/85/39 71/86/39
f 71/86/40 72/85/40 74/87/40 73/88/40
f 16/89/41 14/90/41 76/91/41 74/92/41 72/93/41 70/94/41 68/95/41 66/96/41 64/97/41 62/98/41 60/99/41 58/100/41 56/101/41 54/102/41 52/103/41 50/104/41 48/105/41 46/106/41 44/107/41 42/108/41 40/109/41 38/110/41 36/111/41 34/112/41 32/113/41 30/114/41 28/115/41 26/116/41 24/117/41 22/118/41 20/119/41 18/120/41
f 73/88/42 74/87/42 76/121/42 75/122/42
f 75/122/43 76/121/43 14/123/43 13/124/43
f 13/125/44 15/126/44 17/127/44 19/128/44 21/129/44 23/130/44 25/131/44 27/132/44 29/133/44 31/134/44 33/135/44 35/136/44 37/137/44 39/138/44 41/139/44 43/140/44 45/141/44 47/142/44 49/143/44 51/144/44 53/145/44 55/146/44 57/147/44 59/148/44 61/149/44 63/150/44 65/151/44 67/152/44 69/153/44 71/154/44 73/155/44 75/156/44
